Coordinates
version=1
nRows=38
nColumns=12
inDegrees=yes

Units are S.I. units (second, meters, Newtons, ...)
Angles are in degrees

endheader
time	SC_y	SC_z	SC_x	AC_y	AC_z	AC_x	GH_y	GH_z	GH_yy	EL_x	PS_y
       0.0              -41.72         -4.765         0.7915          63.38          -18.0          13.09         -151.5          21.41         -6.649          139.4          124.0
   0.02533              -41.72         -4.758         0.7982          63.38         -17.99          13.08         -151.5          21.41         -6.641          139.4          124.0
   0.05065              -41.72         -4.752         0.8052          63.38         -17.99          13.08         -151.4          21.41         -6.632          139.4          124.0
   0.07598              -41.73         -4.744         0.8127          63.38         -17.99          13.07         -151.4          21.41         -6.623          139.4          124.0
    0.1013              -41.73         -4.737         0.8206          63.38         -17.99          13.07         -151.3           21.4         -6.613          139.3          124.0
    0.1266              -41.73         -4.729         0.8291          63.38         -17.98          13.06         -151.3           21.4         -6.602          139.3          123.9
     0.152              -41.74          -4.72         0.8382          63.38         -17.98          13.06         -151.2           21.4         -6.591          139.3          123.9
    0.1773              -41.74         -4.711         0.8479          63.38         -17.98          13.05         -151.1           21.4         -6.579          139.3          123.9
    0.2026              -41.74         -4.701         0.8582          63.38         -17.97          13.04         -151.1           21.4         -6.566          139.3          123.9
    0.2279              -41.75          -4.69         0.8694          63.38         -17.97          13.04         -151.0          21.39         -6.552          139.3          123.9
    0.2533              -41.75         -4.679         0.8813          63.38         -17.96          13.03         -150.9          21.39         -6.537          139.2          123.9
    0.2786              -41.76         -4.667         0.8942          63.38         -17.96          13.02         -150.8          21.39         -6.521          139.2          123.9
    0.3039              -41.76         -4.654          0.908          63.38         -17.95          13.01         -150.8          21.38         -6.504          139.2          123.9
    0.3292              -41.77         -4.639          0.923          63.38         -17.95           13.0         -150.7          21.38         -6.486          139.2          123.9
    0.3546              -41.77         -4.624         0.9392          63.37         -17.94          12.99         -150.6          21.38         -6.466          139.1          123.9
    0.3799              -41.78         -4.607         0.9568          63.37         -17.93          12.98         -150.4          21.37         -6.444          139.1          123.8
    0.4052              -41.79         -4.589         0.9759          63.37         -17.92          12.97         -150.3          21.37          -6.42          139.1          123.8
    0.4306               -41.8         -4.569         0.9967          63.37         -17.92          12.96         -150.2          21.36         -6.394          139.0          123.8
    0.4559               -41.8         -4.547          1.019          63.37         -17.91          12.94         -150.0          21.36         -6.366          139.0          123.8
    0.4812              -41.81         -4.524          1.044          63.37          -17.9          12.93         -149.9          21.35         -6.335          138.9          123.8
    0.5065              -41.82         -4.498          1.072          63.37         -17.89          12.91         -149.7          21.34         -6.301          138.9          123.7
    0.5319              -41.84         -4.469          1.102          63.37         -17.88          12.89         -149.5          21.33         -6.264          138.8          123.7
    0.5572              -41.85         -4.437          1.135          63.36         -17.86          12.87         -149.3          21.33         -6.223          138.8          123.7
    0.5825              -41.86         -4.402          1.172          63.36         -17.85          12.84         -149.1          21.32         -6.177          138.7          123.7
    0.6078              -41.88         -4.363          1.213          63.36         -17.83          12.82         -148.8          21.31         -6.126          138.7          123.6
    0.6332              -41.89          -4.32          1.258          63.36         -17.81          12.79         -148.5           21.3          -6.07          138.6          123.6
    0.6585              -41.91         -4.271          1.309          63.35         -17.79          12.76         -148.2          21.28         -6.006          138.5          123.5
    0.6838              -41.94         -4.216          1.367          63.35         -17.77          12.72         -147.8          21.27         -5.935          138.4          123.5
    0.7091              -41.96         -4.155          1.432          63.35         -17.75          12.68         -147.4          21.25         -5.854          138.3          123.4
    0.7345              -41.99         -4.084          1.506          63.34         -17.72          12.63         -146.9          21.23         -5.762          138.1          123.4
    0.7598              -42.02         -4.004           1.59          63.34         -17.68          12.58         -146.4          21.21         -5.658          138.0          123.3
    0.7851              -42.06         -3.912          1.687          63.33         -17.65          12.52         -145.8          21.19         -5.538          137.8          123.2
    0.8105               -42.1         -3.806          1.798          63.33          -17.6          12.44         -145.1          21.16         -5.399          137.6          123.1
    0.8358              -42.15         -3.682          1.928          63.32         -17.55          12.36         -144.2          21.13         -5.238          137.4          123.0
    0.8611              -42.21         -3.537           2.08          63.31         -17.49          12.26         -143.3          21.09          -5.05          137.1          122.9
    0.8864              -42.27         -3.367          2.259           63.3         -17.42          12.15         -142.1          21.04         -4.828          136.8          122.7
    0.9118              -42.35         -3.165          2.471          63.29         -17.34          12.01         -140.8          20.99         -4.564          136.4          122.5
    0.9371              -42.45         -2.922          2.726          63.27         -17.24          11.85         -139.1          20.93         -4.248          136.0          122.3
